<svg width="65" height="65" viewBox="0 0 65 65" fill="none" xmlns="http://www.w3.org/2000/svg">
<path d="M13.7324 0C6.17958 0 0 6.17959 0 13.7324V51.2676C0 58.8204 6.17958 65 13.7324 65H51.2676C58.8204 65 65 58.8204 65 51.2676V13.7324C65 6.17959 58.8204 0 51.2676 0H13.7324Z" fill="#222765"/>
<path d="M32.5 16.8302C31.1132 16.8302 29.9575 17.9623 29.9575 19.3208V32C29.9575 32.9057 30.4198 33.5849 31.1132 34.0377L41.0519 39.6981C42.2075 40.3774 43.8255 39.9245 44.2877 38.7925C44.9811 37.6604 44.5189 36.3019 43.3632 35.6226L34.8113 30.6415V19.3208C34.8113 17.9623 33.8868 16.8302 32.5 16.8302ZM32.5 12.7547C43.3632 12.7547 52.1462 21.3585 52.1462 32C52.1462 42.6415 43.3632 51.2453 32.5 51.2453C21.6368 51.2453 12.8538 42.6415 12.8538 32C12.8538 21.3585 21.6368 12.7547 32.5 12.7547ZM32.5 8C19.0943 8 8 18.6415 8 32C8 45.1321 18.8632 56 32.5 56C45.9057 56 57 45.3585 57 32C56.7689 18.8679 45.9057 8 32.5 8Z" fill="white"/>
</svg>
