<?xml version="1.0" encoding="utf-8"?>
<!-- Generator: Adobe Illustrator 24.0.2, SVG Export Plug-In . SVG Version: 6.00 Build 0)  -->
<svg version="1.1"
	 id="Capa_1" xmlns:cc="http://creativecommons.org/ns#" xmlns:dc="http://purl.org/dc/elements/1.1/" xmlns:inkscape="http://www.inkscape.org/namespaces/inkscape" xmlns:rdf="http://www.w3.org/1999/02/22-rdf-syntax-ns#" xmlns:sodipodi="http://sodipodi.sourceforge.net/DTD/sodipodi-0.dtd" xmlns:svg="http://www.w3.org/2000/svg"
	 xmlns="http://www.w3.org/2000/svg" xmlns:xlink="http://www.w3.org/1999/xlink" x="0px" y="0px" viewBox="0 0 99.9 100.9"
	 style="enable-background:new 0 0 99.9 100.9;" xml:space="preserve">
<style type="text/css">
	.st0{fill:#222765;stroke:#222765;stroke-width:2;stroke-miterlimit:10;}
</style>
<g transform="translate(0,-952.36218)">
	<path class="st0" d="M49.8,962.3c-0.6,0.1-1.2,0.5-1.5,1l-12.9,23l-25.8,5.5c-1.1,0.2-1.8,1.3-1.5,2.4c0.1,0.4,0.3,0.7,0.5,1
		l18.3,18.3l-3.7,26.6c-0.2,1.1,0.6,2.1,1.7,2.3c0.4,0.1,0.8,0,1.1-0.2l23.9-11l23.9,11c1,0.5,2.2,0,2.7-1c0.2-0.3,0.2-0.7,0.2-1.1
		l-3.7-26.6l18.3-18.3c0.8-0.8,0.8-2,0-2.8c-0.3-0.3-0.6-0.5-1-0.5l-25.8-5.5l-12.9-23C51.4,962.6,50.6,962.2,49.8,962.3z
		 M50.1,968.4L61.7,989c0.3,0.5,0.8,0.8,1.3,1l23.1,4.9l-16.4,16.4c-0.4,0.4-0.6,1.1-0.6,1.7l3.3,23.9l-21.4-9.8
		c-0.5-0.2-1.2-0.2-1.7,0l-21.4,9.8l3.3-23.9c0.1-0.6-0.1-1.2-0.6-1.7l-16.5-16.4l23.1-4.9c0.6-0.1,1-0.5,1.3-1L50.1,968.4
		L50.1,968.4z"/>
</g>
</svg>
